<svg xmlns="http://www.w3.org/2000/svg" viewBox="0 0 800 450" width="800" height="450">
  <defs>
    <filter id="softShadow">
      <feGaussianBlur in="SourceAlpha" stdDeviation="3"/>
      <feOffset dx="2" dy="2" result="offsetblur"/>
      <feComponentTransfer>
        <feFuncA type="linear" slope="0.2"/>
      </feComponentTransfer>
      <feMerge>
        <feMergeNode/>
        <feMergeNode in="SourceGraphic"/>
      </feMerge>
    </filter>
    <filter id="glow">
      <feGaussianBlur stdDeviation="2" result="coloredBlur"/>
      <feMerge>
        <feMergeNode in="coloredBlur"/>
        <feMergeNode in="SourceGraphic"/>
      </feMerge>
    </filter>
  </defs>

  <!-- 温暖背景 -->
  <rect width="800" height="450" fill="#FFF9F0"/>

  <!-- 可爱的AI小助手 -->
  <g transform="translate(400, 250)" filter="url(#softShadow)">
    <!-- 身体 -->
    <ellipse cx="0" cy="20" rx="70" ry="80" fill="#FFB6C1" stroke="#FF69B4" stroke-width="3"/>

    <!-- 头部 -->
    <circle cx="0" cy="-50" r="55" fill="#FFB6C1" stroke="#FF69B4" stroke-width="3"/>

    <!-- 大眼睛 -->
    <ellipse cx="-18" cy="-55" rx="12" ry="15" fill="#fff"/>
    <ellipse cx="18" cy="-55" rx="12" ry="15" fill="#fff"/>
    <circle cx="-18" cy="-52" r="8" fill="#4A4A4A"/>
    <circle cx="18" cy="-52" r="8" fill="#4A4A4A"/>
    <circle cx="-15" cy="-56" r="3" fill="#fff"/>
    <circle cx="21" cy="-56" r="3" fill="#fff"/>

    <!-- 微笑 -->
    <path d="M -22,-35 Q 0,-25 22,-35" stroke="#FF69B4" stroke-width="3" fill="none" stroke-linecap="round"/>

    <!-- 腮红 -->
    <ellipse cx="-35" cy="-40" rx="8" ry="6" fill="#FFB6C1" opacity="0.6"/>
    <ellipse cx="35" cy="-40" rx="8" ry="6" fill="#FFB6C1" opacity="0.6"/>

    <!-- 天线 -->
    <line x1="0" y1="-105" x2="0" y2="-115" stroke="#FF69B4" stroke-width="3"/>
    <circle cx="0" cy="-118" r="6" fill="#FFD700"/>

    <!-- 手臂 - 挥手 -->
    <ellipse cx="-75" cy="10" rx="12" ry="35" fill="#FFB6C1" stroke="#FF69B4" stroke-width="2" transform="rotate(-20 -75 10)"/>
    <circle cx="-85" cy="-5" r="15" fill="#FFB6C1" stroke="#FF69B4" stroke-width="2"/>
    <ellipse cx="75" cy="10" rx="12" ry="35" fill="#FFB6C1" stroke="#FF69B4" stroke-width="2" transform="rotate(20 75 10)"/>
    <circle cx="85" cy="-5" r="15" fill="#FFB6C1" stroke="#FF69B4" stroke-width="2"/>

    <!-- 腿 -->
    <ellipse cx="-25" cy="95" rx="15" ry="30" fill="#FFB6C1" stroke="#FF69B4" stroke-width="2"/>
    <ellipse cx="25" cy="95" rx="15" ry="30" fill="#FFB6C1" stroke="#FF69B4" stroke-width="2"/>
    <ellipse cx="-25" cy="120" rx="18" ry="10" fill="#FF69B4"/>
    <ellipse cx="25" cy="120" rx="18" ry="10" fill="#FF69B4"/>
  </g>

  <!-- 标题 -->
  <text x="400" y="80" font-size="36" font-weight="bold" fill="#FF69B4" text-anchor="middle" font-family="'Comic Sans MS', cursive">
    AI小助手
  </text>
</svg>