<svg xmlns="http://www.w3.org/2000/svg" viewBox="0 0 800 450" width="800" height="450">
  <defs>
    <filter id="softShadow">
      <feGaussianBlur in="SourceAlpha" stdDeviation="3"/>
      <feOffset dx="2" dy="2" result="offsetblur"/>
      <feComponentTransfer>
        <feFuncA type="linear" slope="0.2"/>
      </feComponentTransfer>
      <feMerge>
        <feMergeNode/>
        <feMergeNode in="SourceGraphic"/>
      </feMerge>
    </filter>
    <filter id="glow">
      <feGaussianBlur stdDeviation="2" result="coloredBlur"/>
      <feMerge>
        <feMergeNode in="coloredBlur"/>
        <feMergeNode in="SourceGraphic"/>
      </feMerge>
    </filter>
  </defs>

  <!-- 温暖背景 -->
  <rect width="800" height="450" fill="#FFF9F0"/>

  <!-- 3D坐标系 -->
  <g transform="translate(400, 250)">
    <!-- X轴 -->
    <line x1="-150" y1="0" x2="150" y2="0" stroke="#4682B4" stroke-width="3"/>
    <polygon points="150,0 140,-5 140,5" fill="#4682B4"/>
    <text x="160" y="5" font-size="18" fill="#4682B4">X</text>

    <!-- Y轴 -->
    <line x1="0" y1="100" x2="0" y2="-100" stroke="#32CD32" stroke-width="3"/>
    <polygon points="0,-100 -5,-90 5,-90" fill="#32CD32"/>
    <text x="10" y="-105" font-size="18" fill="#32CD32">Y</text>

    <!-- Z轴 (斜向) -->
    <line x1="0" y1="0" x2="-80" y2="80" stroke="#FF6347" stroke-width="3"/>
    <polygon points="-80,80 -75,72 -72,77" fill="#FF6347"/>
    <text x="-95" y="90" font-size="18" fill="#FF6347">Z</text>

    <!-- 词语点 -->
    <circle cx="60" cy="-40" r="8" fill="#FFD700" filter="url(#glow)"/>
    <text x="70" y="-35" font-size="16" fill="#333">国王</text>

    <circle cx="80" cy="-30" r="8" fill="#FFD700" filter="url(#glow)"/>
    <text x="90" y="-25" font-size="16" fill="#333">王后</text>

    <circle cx="-60" cy="50" r="8" fill="#87CEEB" filter="url(#glow)"/>
    <text x="-90" y="55" font-size="16" fill="#333">苹果</text>

    <circle cx="-50" cy="60" r="8" fill="#87CEEB" filter="url(#glow)"/>
    <text x="-80" y="75" font-size="16" fill="#333">香蕉</text>
  </g>

  <text x="400" y="60" font-size="32" font-weight="bold" fill="#4682B4" text-anchor="middle">
    词语的坐标空间
  </text>
</svg>