<svg xmlns="http://www.w3.org/2000/svg" viewBox="0 0 800 450" width="800" height="450">
  <defs>
    <filter id="softShadow">
      <feGaussianBlur in="SourceAlpha" stdDeviation="3"/>
      <feOffset dx="2" dy="2" result="offsetblur"/>
      <feComponentTransfer>
        <feFuncA type="linear" slope="0.2"/>
      </feComponentTransfer>
      <feMerge>
        <feMergeNode/>
        <feMergeNode in="SourceGraphic"/>
      </feMerge>
    </filter>
    <filter id="glow">
      <feGaussianBlur stdDeviation="2" result="coloredBlur"/>
      <feMerge>
        <feMergeNode in="coloredBlur"/>
        <feMergeNode in="SourceGraphic"/>
      </feMerge>
    </filter>
  </defs>

  <!-- 温暖背景 -->
  <rect width="800" height="450" fill="#FFF9F0"/>

  <!-- GitHub Octocat -->
  <g transform="translate(400, 225)">
    <!-- 身体 -->
    <ellipse cx="0" cy="30" rx="80" ry="70" fill="#24292e" stroke="#000" stroke-width="3"/>

    <!-- 头部 -->
    <circle cx="0" cy="-30" r="60" fill="#24292e" stroke="#000" stroke-width="3"/>

    <!-- 耳朵 -->
    <ellipse cx="-45" cy="-60" rx="20" ry="30" fill="#24292e" stroke="#000" stroke-width="2" transform="rotate(-20 -45 -60)"/>
    <ellipse cx="45" cy="-60" rx="20" ry="30" fill="#24292e" stroke="#000" stroke-width="2" transform="rotate(20 45 -60)"/>

    <!-- 眼睛 -->
    <ellipse cx="-20" cy="-35" rx="15" ry="20" fill="#fff"/>
    <ellipse cx="20" cy="-35" rx="15" ry="20" fill="#fff"/>
    <circle cx="-20" cy="-30" r="8" fill="#000"/>
    <circle cx="20" cy="-30" r="8" fill="#000"/>

    <!-- 鼻子 -->
    <ellipse cx="0" cy="-15" rx="8" ry="6" fill="#000"/>

    <!-- 微笑 -->
    <path d="M -25,0 Q 0,10 25,0" stroke="#000" stroke-width="3" fill="none"/>

    <!-- 触手 -->
    <path d="M -70,60 Q -90,80 -80,100" stroke="#24292e" stroke-width="15" fill="none" stroke-linecap="round"/>
    <path d="M -40,80 Q -50,100 -40,120" stroke="#24292e" stroke-width="12" fill="none" stroke-linecap="round"/>
    <path d="M 40,80 Q 50,100 40,120" stroke="#24292e" stroke-width="12" fill="none" stroke-linecap="round"/>
    <path d="M 70,60 Q 90,80 80,100" stroke="#24292e" stroke-width="15" fill="none" stroke-linecap="round"/>
  </g>

  <text x="400" y="80" font-size="36" font-weight="bold" fill="#24292e" text-anchor="middle">
    GitHub
  </text>
</svg>